<?xml version="1.0" encoding="UTF-8" standalone="no"?>
<svg
   xmlns:dc="http://purl.org/dc/elements/1.1/"
   xmlns:cc="http://creativecommons.org/ns#"
   xmlns:rdf="http://www.w3.org/1999/02/22-rdf-syntax-ns#"
   xmlns:svg="http://www.w3.org/2000/svg"
   xmlns="http://www.w3.org/2000/svg"
   xmlns:sodipodi="http://sodipodi.sourceforge.net/DTD/sodipodi-0.dtd"
   xmlns:inkscape="http://www.inkscape.org/namespaces/inkscape"
   width="134.87134"
   height="31.577141"
   viewBox="0 0 134.87134 31.577141"
   id="svg2"
   version="1.1"
   inkscape:version="0.48.4 r9939"
   sodipodi:docname="pozyczme-logo-vect.svg">
  <metadata
     id="metadata10">
    <rdf:RDF>
      <cc:Work
         rdf:about="">
        <dc:format>image/svg+xml</dc:format>
        <dc:type
           rdf:resource="http://purl.org/dc/dcmitype/StillImage" />
        <dc:title></dc:title>
      </cc:Work>
    </rdf:RDF>
  </metadata>
  <defs
     id="defs8" />
  <sodipodi:namedview
     pagecolor="#ffffff"
     bordercolor="#666666"
     borderopacity="1"
     objecttolerance="10"
     gridtolerance="10"
     guidetolerance="10"
     inkscape:pageopacity="0"
     inkscape:pageshadow="2"
     inkscape:window-width="1301"
     inkscape:window-height="744"
     id="namedview6"
     showgrid="false"
     inkscape:zoom="3.4766084"
     inkscape:cx="69.089226"
     inkscape:cy="-0.54063919"
     inkscape:window-x="65"
     inkscape:window-y="24"
     inkscape:window-maximized="1"
     inkscape:current-layer="text2987"
     fit-margin-top="0"
     fit-margin-left="0"
     fit-margin-right="0"
     fit-margin-bottom="0" />
  <path
     d="m 11.535093,8.1972658 1.58808,-2.17279 c 0.67542,0.54982 1.32433,1.16384 1.96346,1.81694 l -1.736,2.1783702 c -0.5889,-0.6740202 -1.18338,-1.2978102 -1.81554,-1.8225202 z m 14.54948,-1.5197 c 2.9487,0 4.85495,2.2021 4.85495,5.5820002 0,0.41028 -0.0293,0.80242 -0.0851,1.17641 l 2.67099,0.53448 c 0.0865,-0.54704 0.13397,-1.1178 0.13397,-1.71089 0,-4.9470502 -3.11336,-8.3730002 -7.57478,-8.3730002 -8.39672,0 -11.74174,13.9550002 -18.3396604,13.9550002 -2.95009,0 -4.85634,-2.2021 -4.85634,-5.582 0,-0.41027 0.0293,-0.80241 0.0851,-1.1764 l -2.67098995,-0.53448 c -0.0879,0.54704 -0.13536,1.11779 -0.13536,1.71088 0,4.94705 3.11475995,8.373 7.57756995,8.373 8.3771904,0 11.7305704,-13.9550002 18.3396604,-13.9550002 z m -25.46090035,2.5133 2.70726995,0.54145 c 0.22188,-0.5889 0.51633,-1.1164 0.89731,-1.549 l -1.9551,-1.9537 c -0.73264,0.81218 -1.28943995,1.81554 -1.64947995,2.96125 z m 6.52116995,-5.27499 c -1.46388,0.10466 -2.76448,0.58471 -3.83483,1.37596 l 2.01929,2.01929 c 0.53308,-0.30701 1.14152,-0.50238 1.81554,-0.57634 v -2.81891 z m 4.8507604,1.28665 c -1.03546,-0.66287 -2.1644204,-1.11919 -3.4552604,-1.25735 v 2.79658 c 0.66566,0.10327 1.2727,0.34051 1.8448504,0.66287 l 1.61041,-2.2021 z m 10.296,11.1179502 c -0.62937,-0.52331 -1.22385,-1.14431 -1.80996,-1.81694 l -1.736,2.17837 c 0.63635,0.65031 1.28525,1.26293 1.95928,1.81136 l 1.58668,-2.17279 z m 8.20415,-1.53366 c -0.22328,0.5889 -0.51773,1.1164 -0.89731,1.54901 l 1.9537,1.9551 c 0.73264,-0.81219 1.29084,-1.81555 1.64949,-2.96265 l -2.70588,-0.54146 z m -5.2094,5.78714 v -2.79658 c -0.66566,-0.10327 -1.2713,-0.3419 -1.84485,-0.66565 l -1.60902,2.20349 c 1.03407,0.66426 2.16442,1.12059 3.45387,1.25874 z m 3.21244,-3.36594 c -0.53448,0.30701 -1.14152,0.50238 -1.81694,0.57634 v 2.8203 c 1.46388,-0.10466 2.76448,-0.58471 3.83483,-1.37596 l -2.01789,-2.02068 z"
     id="path4"
     inkscape:connector-curvature="0"
     style="stroke-width:1.06700002000000005;stroke-miterlimit:4;stroke-dasharray:none;stroke:#002060;stroke-opacity:1;fill:#002060;fill-opacity:1" />
  <g
     style="font-size:40px;font-style:normal;font-variant:normal;font-weight:300;font-stretch:normal;line-height:125%;letter-spacing:0px;word-spacing:0px;fill:#000000;fill-opacity:1;stroke:none;font-family:Montserrat;-inkscape-font-specification:Montserrat Light"
     id="text2987">
    <path
       d="m 41.713147,-4.7302246e-7 c -0.531999,0 -0.98,0.44800056302246 -0.98,1.00799997302246 0,0.5879994 0.448001,1.036 0.98,1.036 0.532,0 0.98,-0.4480006 0.98,-1.036 0,-0.55999941 -0.448,-1.00799997302246 -0.98,-1.00799997302246 M 36.337147,5.2079995 l 0,1.092 9.716,0 -9.968,12.4320005 0,1.064 11.48,0.028 0,-1.064 -10.164,-0.028 9.968,-12.4320005 0,-1.064 -11.032,-0.028"
       style="font-size:28px;stroke-width:1.06700002000000005;stroke-miterlimit:4;stroke-dasharray:none;stroke:#002060;stroke-opacity:1;fill:#002060;fill-opacity:1"
       id="path3039" />
    <path
       d="m 55.394647,21.896 6.776,-16.6880005 -1.232,0 -5.236,13.2160005 -5.376,-13.2160005 -1.232,0 6.02,14.5880005 -0.672,1.652 c -0.699999,1.707998 -1.820001,2.632 -3.136,2.632 -0.811999,0 -1.568,-0.224001 -2.212,-0.672 l -0.504,1.008 c 0.756,0.559999 1.708001,0.84 2.772,0.84 1.707999,0 3.136001,-1.176003 4.032,-3.36"
       style="font-size:28px;stroke-width:1.06700002000000005;stroke-miterlimit:4;stroke-dasharray:none;stroke:#002060;stroke-opacity:1;fill:#002060;fill-opacity:1"
       id="path3041" />
    <path
       d="m 74.715522,8.0639995 0.672,-0.84 c -1.287998,-1.2879987 -3.108002,-2.044 -5.208,-2.044 -4.115996,0 -7.14,3.0520043 -7.14,7.3360005 0,4.283995 3.024004,7.308 7.14,7.308 2.267998,0 4.200002,-0.868002 5.488,-2.38 l -0.7,-0.756 c -1.119999,1.315998 -2.800002,2.044 -4.76,2.044 -3.499996,0 -6.02,-2.548004 -6.02,-6.244 0,-3.6399968 2.520004,-6.1880005 6.02,-6.1880005 1.819998,0 3.332001,0.6720011 4.508,1.764"
       style="font-size:28px;stroke-width:1.06700002000000005;stroke-miterlimit:4;stroke-dasharray:none;stroke:#002060;stroke-opacity:1;fill:#002060;fill-opacity:1"
       id="path3043" />
    <path
       d="m 79.212147,5.2079995 0,1.092 9.716,0 -9.968,12.4320005 0,1.064 11.48,0.028 0,-1.064 -10.164,-0.028 9.968,-12.4320005 0,-1.064 -11.032,-0.028"
       style="font-size:28px;stroke-width:1.06700002000000005;stroke-miterlimit:4;stroke-dasharray:none;stroke:#002060;stroke-opacity:1;fill:#002060;fill-opacity:1"
       id="path3045" />
    <path
       d="m 93.677647,0.16799953 0,19.62800047 4.564,0 0,-12.4320005 4.564003,10.4720005 3.36,0 4.564,-10.4720005 0.028,12.4320005 4.536,0 0,-19.62800047 -5.6,0 L 104.48565,11.62 99.277647,0.16799953 l -5.6,0"
       style="font-weight:bold;stroke-width:1.06700002000000005;stroke-miterlimit:4;stroke-dasharray:none;stroke:#002060;stroke-opacity:1;fill:#002060;fill-opacity:1"
       id="path3047" />
    <path
       d="m 119.10733,0.16799953 0,19.62800047 15.764,0 0,-4.088 -10.64,0 0,-3.696 9.352,-0.028 0,-4.0600005 -9.352,0 0,-3.668 10.36,0 0,-4.08799997 -15.484,0"
       style="font-weight:bold;stroke-width:1.06700002000000005;stroke-miterlimit:4;stroke-dasharray:none;stroke:#002060;stroke-opacity:1;fill:#002060;fill-opacity:1"
       id="path3049" />
  </g>
  <path
     style="fill:#002060;stroke:#002060;stroke-width:1.06700002000000005;stroke-linecap:butt;stroke-linejoin:miter;stroke-opacity:1;stroke-miterlimit:4;stroke-dasharray:none;fill-opacity:1"
     d="m 0.53357265,3.8035658 c 0,61.2899902 0,0 0,0 z"
     id="path2999"
     inkscape:connector-curvature="0" />
</svg>
